<mxfile host="Electron" modified="2023-05-20T12:50:38.816Z" agent="Mozilla/5.0 (Windows NT 10.0; Win64; x64) AppleWebKit/537.36 (KHTML, like Gecko) draw.io/21.2.8 Chrome/112.0.5615.165 Electron/24.2.0 Safari/537.36" etag="xLR2tgC_CSMcCQhDa7sR" version="21.2.8" type="device">
  <diagram name="Strona-1" id="byES5bhnEhjuqeQ9rIrf">
    <mxGraphModel dx="472" dy="827" grid="1" gridSize="10" guides="1" tooltips="1" connect="1" arrows="1" fold="1" page="1" pageScale="1" pageWidth="700" pageHeight="300" math="1" shadow="0">
      <root>
        <mxCell id="0" />
        <mxCell id="1" parent="0" />
        <mxCell id="7Au1AGBIe0D8imH5YFFs-2" style="edgeStyle=orthogonalEdgeStyle;rounded=0;orthogonalLoop=1;jettySize=auto;html=1;exitX=0.5;exitY=1;exitDx=0;exitDy=0;" parent="1" edge="1">
          <mxGeometry relative="1" as="geometry">
            <mxPoint x="23" y="105" as="sourcePoint" />
            <mxPoint x="23" y="105" as="targetPoint" />
          </mxGeometry>
        </mxCell>
        <mxCell id="7Au1AGBIe0D8imH5YFFs-12" value="" style="edgeStyle=orthogonalEdgeStyle;rounded=0;orthogonalLoop=1;jettySize=auto;html=1;" parent="1" source="7Au1AGBIe0D8imH5YFFs-3" target="7Au1AGBIe0D8imH5YFFs-11" edge="1">
          <mxGeometry relative="1" as="geometry" />
        </mxCell>
        <mxCell id="7Au1AGBIe0D8imH5YFFs-3" value="&lt;font style=&quot;font-size: 19px;&quot;&gt;$$z^{-1}$$&lt;/font&gt;" style="rounded=0;whiteSpace=wrap;html=1;fontSize=19;" parent="1" vertex="1">
          <mxGeometry x="143" y="55" width="80" height="40" as="geometry" />
        </mxCell>
        <mxCell id="7Au1AGBIe0D8imH5YFFs-30" style="edgeStyle=orthogonalEdgeStyle;rounded=0;orthogonalLoop=1;jettySize=auto;html=1;exitX=1;exitY=0.5;exitDx=0;exitDy=0;entryX=0;entryY=0.5;entryDx=0;entryDy=0;entryPerimeter=0;" parent="1" source="7Au1AGBIe0D8imH5YFFs-10" target="7Au1AGBIe0D8imH5YFFs-28" edge="1">
          <mxGeometry relative="1" as="geometry" />
        </mxCell>
        <mxCell id="7Au1AGBIe0D8imH5YFFs-10" value="$$2$$" style="triangle;whiteSpace=wrap;html=1;spacingLeft=0;spacingRight=0;fontSize=15;direction=south;spacingTop=0;spacingBottom=16;" parent="1" vertex="1">
          <mxGeometry x="63" y="135" width="40" height="60" as="geometry" />
        </mxCell>
        <mxCell id="7Au1AGBIe0D8imH5YFFs-14" value="" style="edgeStyle=orthogonalEdgeStyle;rounded=0;orthogonalLoop=1;jettySize=auto;html=1;" parent="1" source="7Au1AGBIe0D8imH5YFFs-11" target="7Au1AGBIe0D8imH5YFFs-13" edge="1">
          <mxGeometry relative="1" as="geometry" />
        </mxCell>
        <mxCell id="7Au1AGBIe0D8imH5YFFs-11" value="&lt;font style=&quot;font-size: 19px;&quot;&gt;$$z^{-1}$$&lt;/font&gt;" style="rounded=0;whiteSpace=wrap;html=1;fontSize=19;" parent="1" vertex="1">
          <mxGeometry x="303" y="55" width="80" height="40" as="geometry" />
        </mxCell>
        <mxCell id="7Au1AGBIe0D8imH5YFFs-26" style="edgeStyle=orthogonalEdgeStyle;rounded=0;orthogonalLoop=1;jettySize=auto;html=1;exitX=1;exitY=0.5;exitDx=0;exitDy=0;entryX=0;entryY=0.5;entryDx=0;entryDy=0;" parent="1" source="7Au1AGBIe0D8imH5YFFs-13" target="7Au1AGBIe0D8imH5YFFs-25" edge="1">
          <mxGeometry relative="1" as="geometry" />
        </mxCell>
        <mxCell id="7Au1AGBIe0D8imH5YFFs-13" value="&lt;font style=&quot;font-size: 19px;&quot;&gt;$$z^{-1}$$&lt;/font&gt;" style="rounded=0;whiteSpace=wrap;html=1;fontSize=19;" parent="1" vertex="1">
          <mxGeometry x="463" y="55" width="80" height="40" as="geometry" />
        </mxCell>
        <mxCell id="7Au1AGBIe0D8imH5YFFs-20" value="" style="endArrow=classic;html=1;rounded=0;entryX=0;entryY=0.5;entryDx=0;entryDy=0;" parent="1" target="7Au1AGBIe0D8imH5YFFs-3" edge="1">
          <mxGeometry width="50" height="50" relative="1" as="geometry">
            <mxPoint x="23" y="75" as="sourcePoint" />
            <mxPoint x="93" y="65" as="targetPoint" />
          </mxGeometry>
        </mxCell>
        <mxCell id="7Au1AGBIe0D8imH5YFFs-21" value="" style="endArrow=classic;html=1;rounded=0;entryX=0;entryY=0.5;entryDx=0;entryDy=0;" parent="1" target="7Au1AGBIe0D8imH5YFFs-10" edge="1">
          <mxGeometry width="50" height="50" relative="1" as="geometry">
            <mxPoint x="83" y="75" as="sourcePoint" />
            <mxPoint x="43" y="185" as="targetPoint" />
          </mxGeometry>
        </mxCell>
        <mxCell id="7Au1AGBIe0D8imH5YFFs-22" value="$$x(k)$$" style="text;html=1;align=center;verticalAlign=middle;resizable=0;points=[];autosize=1;strokeColor=none;fillColor=none;fontSize=16;" parent="1" vertex="1">
          <mxGeometry x="13" y="45" width="90" height="30" as="geometry" />
        </mxCell>
        <mxCell id="7Au1AGBIe0D8imH5YFFs-29" style="edgeStyle=orthogonalEdgeStyle;rounded=0;orthogonalLoop=1;jettySize=auto;html=1;exitX=1;exitY=0.5;exitDx=0;exitDy=0;entryX=0.5;entryY=0;entryDx=0;entryDy=0;entryPerimeter=0;" parent="1" source="7Au1AGBIe0D8imH5YFFs-23" target="7Au1AGBIe0D8imH5YFFs-28" edge="1">
          <mxGeometry relative="1" as="geometry" />
        </mxCell>
        <mxCell id="7Au1AGBIe0D8imH5YFFs-23" value="$$-1$$" style="triangle;whiteSpace=wrap;html=1;spacingLeft=0;spacingRight=0;fontSize=15;direction=south;spacingTop=0;spacingBottom=16;" parent="1" vertex="1">
          <mxGeometry x="243" y="135" width="40" height="60" as="geometry" />
        </mxCell>
        <mxCell id="7Au1AGBIe0D8imH5YFFs-24" value="" style="endArrow=classic;html=1;rounded=0;entryX=0;entryY=0.5;entryDx=0;entryDy=0;" parent="1" target="7Au1AGBIe0D8imH5YFFs-23" edge="1">
          <mxGeometry width="50" height="50" relative="1" as="geometry">
            <mxPoint x="263" y="75" as="sourcePoint" />
            <mxPoint x="223" y="245" as="targetPoint" />
          </mxGeometry>
        </mxCell>
        <mxCell id="7Au1AGBIe0D8imH5YFFs-33" style="edgeStyle=orthogonalEdgeStyle;rounded=0;orthogonalLoop=1;jettySize=auto;html=1;exitX=1;exitY=0.5;exitDx=0;exitDy=0;entryX=0.5;entryY=0;entryDx=0;entryDy=0;entryPerimeter=0;" parent="1" source="7Au1AGBIe0D8imH5YFFs-25" target="7Au1AGBIe0D8imH5YFFs-31" edge="1">
          <mxGeometry relative="1" as="geometry" />
        </mxCell>
        <mxCell id="7Au1AGBIe0D8imH5YFFs-25" value="$$3$$" style="triangle;whiteSpace=wrap;html=1;spacingLeft=0;spacingRight=0;fontSize=15;direction=south;spacingTop=0;spacingBottom=16;" parent="1" vertex="1">
          <mxGeometry x="563" y="135" width="40" height="60" as="geometry" />
        </mxCell>
        <mxCell id="7Au1AGBIe0D8imH5YFFs-32" style="edgeStyle=orthogonalEdgeStyle;rounded=0;orthogonalLoop=1;jettySize=auto;html=1;exitX=1;exitY=0.5;exitDx=0;exitDy=0;exitPerimeter=0;entryX=0;entryY=0.5;entryDx=0;entryDy=0;entryPerimeter=0;" parent="1" source="7Au1AGBIe0D8imH5YFFs-28" target="7Au1AGBIe0D8imH5YFFs-31" edge="1">
          <mxGeometry relative="1" as="geometry" />
        </mxCell>
        <mxCell id="7Au1AGBIe0D8imH5YFFs-28" value="" style="verticalLabelPosition=bottom;shadow=0;dashed=0;align=center;html=1;verticalAlign=top;shape=mxgraph.electrical.abstract.summation_point;" parent="1" vertex="1">
          <mxGeometry x="248" y="225" width="30" height="30" as="geometry" />
        </mxCell>
        <mxCell id="7Au1AGBIe0D8imH5YFFs-31" value="" style="verticalLabelPosition=bottom;shadow=0;dashed=0;align=center;html=1;verticalAlign=top;shape=mxgraph.electrical.abstract.summation_point;" parent="1" vertex="1">
          <mxGeometry x="568" y="225" width="30" height="30" as="geometry" />
        </mxCell>
        <mxCell id="7Au1AGBIe0D8imH5YFFs-34" value="" style="endArrow=classic;html=1;rounded=0;exitX=1;exitY=0.5;exitDx=0;exitDy=0;exitPerimeter=0;" parent="1" source="7Au1AGBIe0D8imH5YFFs-31" edge="1">
          <mxGeometry width="50" height="50" relative="1" as="geometry">
            <mxPoint x="663" y="325" as="sourcePoint" />
            <mxPoint x="663" y="240" as="targetPoint" />
          </mxGeometry>
        </mxCell>
        <mxCell id="7Au1AGBIe0D8imH5YFFs-36" value="$$y(k)$$" style="text;html=1;align=center;verticalAlign=middle;resizable=0;points=[];autosize=1;strokeColor=none;fillColor=none;fontSize=16;" parent="1" vertex="1">
          <mxGeometry x="598" y="205" width="90" height="30" as="geometry" />
        </mxCell>
      </root>
    </mxGraphModel>
  </diagram>
</mxfile>
